<?xml version="1.0" encoding="UTF-8"?>
<svg height="16px" viewBox="0 0 16 16" width="16px" xmlns="http://www.w3.org/2000/svg">
    <path d="m 2 2 c -1.089844 0 -2 0.910156 -2 2 v 8 c 0 1.089844 0.910156 2 2 2 h 12 c 1.089844 0 2 -0.910156 2 -2 v -8 c 0 -1.089844 -0.910156 -2 -2 -2 z m 0.992188 2 h 7.003906 c 0.277344 0 0.5 0.191406 0.5 0.46875 v 1 c 0 0.277344 -0.222656 0.53125 -0.5 0.53125 h -7.003906 c -0.277344 0 -0.484376 -0.253906 -0.484376 -0.53125 v -1 c 0 -0.277344 0.207032 -0.46875 0.484376 -0.46875 z m 3.492187 3 c 0.554687 0 1 0.449219 1 1 s -0.445313 1 -1 1 c -0.550781 0 -1 -0.449219 -1 -1 s 0.449219 -1 1 -1 z m 3 0 c 0.554687 0 1 0.449219 1 1 s -0.445313 1 -1 1 c -0.550781 0 -1 -0.449219 -1 -1 s 0.449219 -1 1 -1 z m -6.019531 0 c 0.550781 0 1.019531 0.449219 1.019531 1 s -0.46875 1 -1.019531 1 c -0.554688 0 -0.980469 -0.449219 -0.980469 -1 s 0.425781 -1 0.980469 -1 z m 6.019531 3 c 0.554687 0 1 0.449219 1 1 s -0.445313 1 -1 1 c -0.550781 0 -1 -0.449219 -1 -1 s 0.449219 -1 1 -1 z m 3.03125 -3 c 0.550781 0 1 0.449219 1 1 v 3 c 0 0.550781 -0.449219 1 -1 1 c -0.554687 0 -1 -0.449219 -1 -1 v -3 c 0 -0.550781 0.445313 -1 1 -1 z m -9.050781 3 c 0.550781 0 1.019531 0.449219 1.019531 1 s -0.46875 1 -1.019531 1 c -0.554688 0 -0.980469 -0.449219 -0.980469 -1 s 0.425781 -1 0.980469 -1 z m 3.019531 0 c 0.554687 0 1 0.449219 1 1 s -0.445313 1 -1 1 c -0.550781 0 -1 -0.449219 -1 -1 s 0.449219 -1 1 -1 z m 0 0" fill="#241f31"/>
</svg>
