/* XPM */

#ifndef _ICON_XPM_
#define _ICON_XPM_

static char * icon_xpm[] = {
"48 48 81 1",
" 	c None",
".	c #808080",
"+	c #818181",
"@	c #878787",
"#	c #828282",
"$	c #959595",
"%	c #D6D6D6",
"&	c #ECECEC",
"*	c #999999",
"=	c #A2A2A2",
"-	c #DFDFDF",
";	c #8B8B8B",
">	c #BFBFBF",
",	c #E6E6E6",
"'	c #D9D9D9",
")	c #B9B9B9",
"!	c #8A8A8A",
"~	c #A6A6A6",
"{	c #EBEBEB",
"]	c #9A9A9A",
"^	c #D1D1D1",
"/	c #848484",
"(	c #E3E3E3",
"_	c #8D8D8D",
":	c #E7E7E7",
"<	c #ACACAC",
"[	c #979797",
"}	c #AEAEAE",
"|	c #C2C2C2",
"1	c #E8E8E8",
"2	c #898989",
"3	c #BDBDBD",
"4	c #D3D3D3",
"5	c #838383",
"6	c #D8D8D8",
"7	c #C0C0C0",
"8	c #DEDEDE",
"9	c #969696",
"0	c #A3A3A3",
"a	c #B0B0B0",
"b	c #EAEAEA",
"c	c #CFCFCF",
"d	c #909090",
"e	c #9D9D9D",
"f	c #BABABA",
"g	c #E9E9E9",
"h	c #C9C9C9",
"i	c #AAAAAA",
"j	c #DBDBDB",
"k	c #C1C1C1",
"l	c #949494",
"m	c #E2E2E2",
"n	c #8F8F8F",
"o	c #8E8E8E",
"p	c #E1E1E1",
"q	c #A4A4A4",
"r	c #D2D2D2",
"s	c #888888",
"t	c #9F9F9F",
"u	c #8C8C8C",
"v	c #919191",
"w	c #D7D7D7",
"x	c #CCCCCC",
"y	c #CECECE",
"z	c #DDDDDD",
"A	c #DCDCDC",
"B	c #A9A9A9",
"C	c #D0D0D0",
"D	c #ABABAB",
"E	c #CACACA",
"F	c #B1B1B1",
"G	c #D5D5D5",
"H	c #E0E0E0",
"I	c #DADADA",
"J	c #C5C5C5",
"K	c #CDCDCD",
"L	c #BBBBBB",
"M	c #E4E4E4",
"N	c #ADADAD",
"O	c #B2B2B2",
"P	c #A5A5A5",
"................................................",
"................................................",
"................................................",
"................................................",
"................................................",
"................................................",
"................................................",
"................................................",
".......+@@#.........#@@.........................",
"......$%&&*........=-&&#..........;>-,')!.......",
".....$,&&&*.......~{&&&#.........],&&&&&,~......",
".....^&&&&*....../(&&&&#........_:&&&&&&&&<.....",
"....[&&&&&*......}&&&&&#........|&&&&&&&&&12....",
"....3&&&&&*......4&&&&&#.......5,&&&67|8&&&}....",
"....-&&&&&*.....!{&&&&&#.......9&&,0...#ab&c....",
"...d&&&&&&*.....~&&&&&&#.......<&&e......f&g....",
"....h&|i&&*...../j&<k&&#.......|&c.......l&{5...",
"....2mno&&*......9p5q&&#.......r&a........a3....",
".....d.s&&*.......d.t&&#.......8&]..............",
".......s&&*.........t&&#.......b&u..............",
".......s&&*.........t&&#......s&b+..............",
".......s&&*.........t&&#......v&8...............",
".......s&&*.........t&&#......$&w...............",
".......s&&*.........t&&#......*&r...............",
".......s&&*.........t&&#......e&c...............",
".......s&&*.........t&&#......t&x...............",
".......s&&*.........t&&#......e&y...............",
".......s&&*.........t&&#......*&r...............",
".......s&&*.........t&&#......$&6...............",
".......s&&*.........t&&#......v&z...............",
".......s&&*.........t&&#......2&g...............",
".......s&&*.........t&&#.......1&;..............",
".......s&&*.........t&&#.......A&]........*B....",
".......s&&*.........t&&#.......C&D.......nb&_...",
".......s&&*.........t&&#.......3&E.......F&&l...",
".......s&&*.........t&&#.......q&{$.....+G&&s...",
".......s&&*.........t&&#.......!&&(t...sE&&H....",
".......s&&*.........t&&#........6&&&IJKg&&&L....",
".......s&&*.........t&&#........i&&&&&&&&&(2....",
".......s&&*.........t&&#........+c&&&&&&&M*.....",
"......./ff_.........dff+.........5|{&&&b|2......",
"...................................nNOP2........",
"................................................",
"................................................",
"................................................",
"................................................",
"................................................",
"................................................"};

#endif