/* XPM */

#ifndef _ICON_XPM_
#define _ICON_XPM_

static char * icon_xpm[] = {
"48 48 105 2",
"  	c None",
". 	c #000000",
"+ 	c #0B0B0B",
"@ 	c #111111",
"# 	c #030303",
"$ 	c #363636",
"% 	c #606060",
"& 	c #7B7B7B",
"* 	c #808080",
"= 	c #7A7A7A",
"- 	c #5F5F5F",
"; 	c #353535",
"> 	c #020202",
", 	c #151515",
"' 	c #6C6C6C",
") 	c #6B6B6B",
"! 	c #141414",
"~ 	c #787878",
"{ 	c #6D6D6D",
"] 	c #333333",
"^ 	c #323232",
"/ 	c #616161",
"( 	c #7C7C7C",
"_ 	c #070707",
": 	c #0A0A0A",
"< 	c #9C9C9C",
"[ 	c #B2B2B2",
"} 	c #8B8B8B",
"| 	c #838383",
"1 	c #A5A5A5",
"2 	c #818181",
"3 	c #8F8F8F",
"4 	c #A7A7A7",
"5 	c #ABABAB",
"6 	c #A4A4A4",
"7 	c #8A8A8A",
"8 	c #8C8C8C",
"9 	c #D5D5D5",
"0 	c #ECECEC",
"a 	c #999999",
"b 	c #989898",
"c 	c #E0E0E0",
"d 	c #828282",
"e 	c #939393",
"f 	c #D2D2D2",
"g 	c #EBEBEB",
"h 	c #CFCFCF",
"i 	c #D8D8D8",
"j 	c #8D8D8D",
"k 	c #E5E5E5",
"l 	c #969696",
"m 	c #E9E9E9",
"n 	c #B6B6B6",
"o 	c #C2C2C2",
"p 	c #E8E8E8",
"q 	c #EAEAEA",
"r 	c #9D9D9D",
"s 	c #DDDDDD",
"t 	c #949494",
"u 	c #E7E7E7",
"v 	c #CBCBCB",
"w 	c #E4E4E4",
"x 	c #D9D9D9",
"y 	c #9E9E9E",
"z 	c #DEDEDE",
"A 	c #E1E1E1",
"B 	c #B3B3B3",
"C 	c #E6E6E6",
"D 	c #929292",
"E 	c #B0B0B0",
"F 	c #9F9F9F",
"G 	c #959595",
"H 	c #ACACAC",
"I 	c #CECECE",
"J 	c #BBBBBB",
"K 	c #858585",
"L 	c #CDCDCD",
"M 	c #888888",
"N 	c #868686",
"O 	c #909090",
"P 	c #D7D7D7",
"Q 	c #9B9B9B",
"R 	c #D1D1D1",
"S 	c #CCCCCC",
"T 	c #D0D0D0",
"U 	c #979797",
"V 	c #D6D6D6",
"W 	c #919191",
"X 	c #848484",
"Y 	c #DFDFDF",
"Z 	c #8E8E8E",
"` 	c #9A9A9A",
" .	c #AFAFAF",
"..	c #B1B1B1",
"+.	c #DCDCDC",
"@.	c #C1C1C1",
"#.	c #B9B9B9",
"$.	c #E3E3E3",
"%.	c #E2E2E2",
"&.	c #B4B4B4",
"*.	c #BABABA",
"=.	c #898989",
"-.	c #BCBCBC",
";.	c #080808",
">.	c #090909",
"              . . . . . . . . . . . . . . . . . . . . . . . . . . . . . . . . . .               ",
"        . . . . . + @ @ @ @ @ @ @ @ @ @ @ @ @ @ @ @ @ @ @ @ @ @ @ @ @ @ @ @ + . . . . .         ",
"      . . # $ % & * * * * * * * * * * * * * * * * * * * * * * * * * * * * * * = - ; > . .       ",
"    . . , ' * * * * * * * * * * * * * * * * * * * * * * * * * * * * * * * * * * * * ) ! . .     ",
"  . . , ~ * * * * * * * * * * * * * * * * * * * * * * * * * * * * * * * * * * * * * * ~ ! . .   ",
"  . > { * * * * * * * * * * * * * * * * * * * * * * * * * * * * * * * * * * * * * * * * ) > .   ",
"  . ] * * * * * * * * * * * * * * * * * * * * * * * * * * * * * * * * * * * * * * * * * * ^ .   ",
". . / * * * * * * * * * * * * * * * * * * * * * * * * * * * * * * * * * * * * * * * * * * % . . ",
". . ( * * * * * * * * * * * * * * * * * * * * * * * * * * * * * * * * * * * * * * * * * * & . . ",
". _ * * * * * * * * * * * * * * * * * * * * * * * * * * * * * * * * * * * * * * * * * * * * _ . ",
". : * * * * * * * * * * * * * * * * * * * * * * * * * * * * * * * * * * * * * * * * * * * * : . ",
". : * * * * * * * * * * * * * * * * * * * * * * * * * * * * * * * * * * * * * * * * * * * * : . ",
". : * * * * * < [ [ } * * * * * * * * | 1 [ [ 2 * * * * * * * * * * * 3 4 5 6 7 * * * * * * : . ",
". : * * * 8 9 0 0 0 a * * * * * * * b c 0 0 0 d * * * * * * * * * e f 0 0 0 0 g h a * * * * : . ",
". : * * | i 0 0 0 0 a * * * * * * j k 0 0 0 0 d * * * * * * * * l m 0 0 0 0 0 0 0 g n * * * : . ",
". : * * 5 0 0 0 0 0 a * * * * * * o 0 0 0 0 0 d * * * * * * * * i 0 0 0 0 p q 0 0 0 0 r * * : . ",
". : * 2 s 0 0 0 0 0 a * * * * * 7 m 0 0 0 0 0 d * * * * * * * t 0 0 u n 8 * d e o m 0 v * * : . ",
". : * 8 p 0 w x 0 0 a * * * * * y g 0 z A 0 0 d * * * * * * * B 0 C D * * * * * * E 0 q d * : . ",
". : * * r m F G 0 0 a * * * * * * E m 8 H 0 0 d * * * * * * * I 0 J * * * * * * * K L i * * : . ",
". : * * * t * M 0 0 a * * * * * * * t * F 0 0 d * * * * * * * z 0 a * * * * * * * * * * * * : . ",
". : * * * * * M 0 0 a * * * * * * * * * F 0 0 d * * * * * * | g g N * * * * * * * * * * * * : . ",
". : * * * * * M 0 0 a * * * * * * * * * F 0 0 d * * * * * * O 0 A * * * * * * * * * * * * * : . ",
". : * * * * * M 0 0 a * * * * * * * * * F 0 0 d * * * * * * l 0 P * * * * * * * * * * * * * : . ",
". : * * * * * M 0 0 a * * * * * * * * * F 0 0 d * * * * * * Q 0 R * * * * * * * * * * * * * : . ",
". : * * * * * M 0 0 a * * * * * * * * * F 0 0 d * * * * * * F 0 S * * * * * * * * * * * * * : . ",
". : * * * * * M 0 0 a * * * * * * * * * F 0 0 d * * * * * * < 0 T * * * * * * * * * * * * * : . ",
". : * * * * * M 0 0 a * * * * * * * * * F 0 0 d * * * * * * U 0 V * * * * * * * * * * * * * : . ",
". : * * * * * M 0 0 a * * * * * * * * * F 0 0 d * * * * * * W 0 z * * * * * * * * * * * * * : . ",
". : * * * * * M 0 0 a * * * * * * * * * F 0 0 d * * * * * * | g g X * * * * * * * * * * * * : . ",
". : * * * * * M 0 0 a * * * * * * * * * F 0 0 d * * * * * * * Y 0 G * * * * * * * * Z ` * * : . ",
". : * * * * * M 0 0 a * * * * * * * * * F 0 0 d * * * * * * * I 0  .* * * * * * * e q g Z * : . ",
". : * * * * * M 0 0 a * * * * * * * * * F 0 0 d * * * * * * * ..0 +.X * * * * * * @.0 0 3 * : . ",
". : * * * * * M 0 0 a * * * * * * * * * F 0 0 d * * * * * * * Z g 0 9 F * * * M #.g 0 $.2 * : . ",
". : * * * * * M 0 0 a * * * * * * * * * F 0 0 d * * * * * * * * L 0 0 0 p x Y g 0 0 0  .* * : . ",
". : * * * * * M 0 0 a * * * * * * * * * F 0 0 d * * * * * * * * Z %.0 0 0 0 0 0 0 g &.* * * : . ",
". : * * * * * X *.*.j * * * * * * * * * O *.*.2 * * * * * * * * * =.o p 0 0 0 w -.Z * * * * : . ",
". : * * * * * * * * * * * * * * * * * * * * * * * * * * * * * * * * * d W G Z * * * * * * * : . ",
". : * * * * * * * * * * * * * * * * * * * * * * * * * * * * * * * * * * * * * * * * * * * * : . ",
". _ * * * * * * * * * * * * * * * * * * * * * * * * * * * * * * * * * * * * * * * * * * * * _ . ",
". . ( * * * * * * * * * * * * * * * * * * * * * * * * * * * * * * * * * * * * * * * * * * & . . ",
". . / * * * * * * * * * * * * * * * * * * * * * * * * * * * * * * * * * * * * * * * * * * % . . ",
"  . ] * * * * * * * * * * * * * * * * * * * * * * * * * * * * * * * * * * * * * * * * * * ^ .   ",
"  . > { * * * * * * * * * * * * * * * * * * * * * * * * * * * * * * * * * * * * * * * * ) > .   ",
"  . . , ~ * * * * * * * * * * * * * * * * * * * * * * * * * * * * * * * * * * * * * * ~ ! . .   ",
"    . . , ' * * * * * * * * * * * * * * * * * * * * * * * * * * * * * * * * * * * * ) ! . .     ",
"      . . # $ % & * * * * * * * * * * * * * * * * * * * * * * * * * * * * * * = - $ > . .       ",
"        . . . . . ;.>.>.>.>.>.>.>.>.>.>.>.>.>.>.>.>.>.>.>.>.>.>.>.>.>.>.>.>.;.. . . . .         ",
"              . . . . . . . . . . . . . . . . . . . . . . . . . . . . . . . . . .               "};

#endif