<?xml version="1.0" encoding="UTF-8" standalone="no"?>
<!-- Created with Inkscape (http://www.inkscape.org/) -->

<svg
   xmlns:dc="http://purl.org/dc/elements/1.1/"
   xmlns:cc="http://creativecommons.org/ns#"
   xmlns:rdf="http://www.w3.org/1999/02/22-rdf-syntax-ns#"
   xmlns:svg="http://www.w3.org/2000/svg"
   xmlns="http://www.w3.org/2000/svg"
   xmlns:sodipodi="http://sodipodi.sourceforge.net/DTD/sodipodi-0.dtd"
   xmlns:inkscape="http://www.inkscape.org/namespaces/inkscape"
   width="48"
   height="48"
   viewBox="0 0 48 48"
   id="svg2"
   version="1.1"
   inkscape:version="0.91 r"
   sodipodi:docname="icon.svg"
   inkscape:export-filename="/home/giulio/Devel/rapgenic/hp11em/images/icon.png"
   inkscape:export-xdpi="90"
   inkscape:export-ydpi="90">
  <defs
     id="defs4" />
  <sodipodi:namedview
     id="base"
     pagecolor="#ffffff"
     bordercolor="#666666"
     borderopacity="1.0"
     inkscape:pageopacity="0.0"
     inkscape:pageshadow="2"
     inkscape:zoom="8"
     inkscape:cx="-18.356807"
     inkscape:cy="32.761886"
     inkscape:document-units="px"
     inkscape:current-layer="layer1"
     showgrid="true"
     units="px"
     inkscape:snap-grids="true"
     inkscape:window-width="1920"
     inkscape:window-height="1028"
     inkscape:window-x="0"
     inkscape:window-y="0"
     inkscape:window-maximized="1">
    <inkscape:grid
       type="xygrid"
       id="grid3344" />
  </sodipodi:namedview>
  <metadata
     id="metadata7">
    <rdf:RDF>
      <cc:Work
         rdf:about="">
        <dc:format>image/svg+xml</dc:format>
        <dc:type
           rdf:resource="http://purl.org/dc/dcmitype/StillImage" />
        <dc:title></dc:title>
        <cc:license
           rdf:resource="http://creativecommons.org/licenses/by-sa/3.0/" />
      </cc:Work>
      <cc:License
         rdf:about="http://creativecommons.org/licenses/by-sa/3.0/">
        <cc:permits
           rdf:resource="http://creativecommons.org/ns#Reproduction" />
        <cc:permits
           rdf:resource="http://creativecommons.org/ns#Distribution" />
        <cc:requires
           rdf:resource="http://creativecommons.org/ns#Notice" />
        <cc:requires
           rdf:resource="http://creativecommons.org/ns#Attribution" />
        <cc:permits
           rdf:resource="http://creativecommons.org/ns#DerivativeWorks" />
        <cc:requires
           rdf:resource="http://creativecommons.org/ns#ShareAlike" />
      </cc:License>
    </rdf:RDF>
  </metadata>
  <g
     inkscape:label="Livello 1"
     inkscape:groupmode="layer"
     id="layer1"
     transform="translate(0,-1004.3622)">
    <rect
       style="fill:#808080;fill-opacity:1;stroke:#000000;stroke-width:1.92000008;stroke-linejoin:round;stroke-miterlimit:2.20000005;stroke-dasharray:none;stroke-opacity:1"
       id="rect4217"
       width="46.079998"
       height="46.080002"
       x="0.96000004"
       y="1005.3222"
       ry="8.6400166" />
    <path
       style="display:inline;fill:#ececec;fill-opacity:1;stroke:none"
       d="m 10.22551,1039.9175 -2.3074099,0 0,-16.7361 c -0.2557051,-1.4 -1.0604721,-1.9188 -2.1932274,0.6909 l -1.9875318,-2.092 c 1.6015883,-3.9472 2.1115783,-4.0633 4.1807592,-4.875 l 2.3074099,0 c 0,7.6708 0,15.3414 0,23.0122 z"
       id="path11860"
       inkscape:connector-curvature="0"
       sodipodi:nodetypes="cccccccc" />
    <path
       style="display:inline;fill:#ececec;fill-opacity:1;stroke:none"
       d="m 34.506818,1021.3739 c -0.5453,0.3928 -0.998167,1.238 -1.213278,2.1469 -0.818916,3.459 -0.804549,7.6912 0.04964,11.1275 0.203776,0.8196 0.625452,1.5718 1.124171,1.9153 2.024403,1.3941 4.605966,1.4495 6.589621,-0.092 0.466914,-0.3632 0.522643,-1.5893 0.989135,-1.954 0.596717,-0.4662 1.51944,-0.8102 1.984052,-0.039 0.321732,0.533 0.170077,1.5764 -0.03518,2.246 -0.374135,1.2204 -1.178914,2.0864 -1.96774,2.5334 -2.738783,1.5513 -6.080168,2.0433 -8.695404,10e-5 -0.959453,-0.7497 -1.647389,-2.4207 -2.004099,-4.0587 -0.851949,-3.9123 -0.807134,-8.5009 -0.03736,-12.4586 0.32351,-1.663 0.912961,-3.4623 1.862564,-4.2591 2.662968,-2.2351 6.213784,-1.8473 8.979753,0.024 0.784067,0.5303 1.478873,1.6543 1.804584,2.9355 0.114759,0.4518 0.21158,1.1218 0,1.4677 -0.425347,0.6957 -1.253219,0.3933 -1.804584,0 -0.405236,-0.2891 -0.496582,-1.3022 -0.902291,-1.5897 -2.05663,-1.4564 -4.672621,-1.42 -6.723596,0.057 z"
       id="path11864"
       inkscape:connector-curvature="0"
       sodipodi:nodetypes="aaaaaaaaaaaaaaaaaaa" />
    <path
       style="display:inline;fill:#ececec;fill-opacity:1;stroke:none"
       d="m 23.019077,1039.9175 -2.307409,0 0,-16.7361 c -0.255705,-1.4 -1.060473,-1.9188 -2.193228,0.6909 l -1.987532,-2.092 c 1.601588,-3.9472 2.111578,-4.0633 4.18076,-4.875 l 2.307409,0 c 0,7.6708 0,15.3414 0,23.0122 z"
       id="path11860-4"
       inkscape:connector-curvature="0"
       sodipodi:nodetypes="cccccccc" />
  </g>
</svg>
