<?xml version="1.0" encoding="UTF-8"?>
<svg height="128px" viewBox="0 0 128 128" width="128px" xmlns="http://www.w3.org/2000/svg" xmlns:xlink="http://www.w3.org/1999/xlink">
    <linearGradient id="a" gradientUnits="userSpaceOnUse" x1="7.9998935" x2="119.9998935" y1="116.000067" y2="116.000067">
        <stop offset="0" stop-color="#9a9996"/>
        <stop offset="0.0357143" stop-color="#c0bfbc"/>
        <stop offset="0.0713653" stop-color="#9a9996"/>
        <stop offset="0.928571" stop-color="#9a9996"/>
        <stop offset="0.964286" stop-color="#c0bfbc"/>
        <stop offset="1" stop-color="#9a9996"/>
    </linearGradient>
    <symbol id="b" overflow="visible">
        <path d="m 6.515625 -10.09375 l 1.640625 -1.640625 l -0.15625 4.484375 l -0.484375 0.28125 l -1.125 -1 z m -4.25 -1.921875 h 5.703125 l -1.671875 1.671875 h -2.703125 z m -0.171875 0.390625 l 1.296875 1.53125 l -0.234375 2.125 l -1.265625 0.75 l -0.28125 -0.203125 z m -0.203125 4.765625 l 1.140625 0.875 l -0.140625 2.671875 l -1.5625 1.703125 l 0.15625 -4.984375 s 0.0625 -0.039062 0.1875 -0.125 c 0.132813 -0.09375 0.207031 -0.140625 0.21875 -0.140625 z m 1.09375 3.859375 h 2.4375 l 1.609375 1.65625 l -5.484375 0.015625 z m 2.8125 -0.03125 l 0.484375 -2.78125 l 1.234375 -0.828125 l 0.421875 0.296875 l -0.734375 4.765625 z m 0 0"/>
    </symbol>
    <symbol id="c" overflow="visible">
        <path d="m -1.078125 -3.3125 h 1.53125 c 0.144531 0 0.21875 0.078125 0.21875 0.234375 v 1.46875 c 0 0.148437 -0.074219 0.21875 -0.21875 0.21875 h -1.53125 c -0.132813 0 -0.203125 -0.070313 -0.203125 -0.21875 v -1.46875 c 0 -0.15625 0.070312 -0.234375 0.203125 -0.234375 z m 0 0"/>
    </symbol>
    <path d="m 16 40 h 96 c 4.417969 0 8 3.582031 8 8 v 60 c 0 4.417969 -3.582031 8 -8 8 h -96 c -4.417969 0 -8 -3.582031 -8 -8 v -60 c 0 -4.417969 3.582031 -8 8 -8 z m 0 0" fill="url(#a)"/>
    <path d="m 16 28 h 96 c 4.417969 0 8 3.582031 8 8 v 68 c 0 4.417969 -3.582031 8 -8 8 h -96 c -4.417969 0 -8 -3.582031 -8 -8 v -68 c 0 -4.417969 3.582031 -8 8 -8 z m 0 0" fill="#deddda"/>
    <path d="m 20.296875 31.761719 h 87.40625 c 4.023437 0 7.285156 3.257812 7.285156 7.28125 v 61.914062 c 0 4.023438 -3.261719 7.28125 -7.285156 7.28125 h -87.40625 c -4.023437 0 -7.285156 -3.257812 -7.285156 -7.28125 v -61.914062 c 0 -4.023438 3.261719 -7.28125 7.285156 -7.28125 z m 0 0" fill="#3d3846"/>
    <path d="m 24.757812 53.8125 h 55.480469 c 2.355469 0 4.261719 -1.789062 4.261719 -4 v -8 c 0 -2.210938 -1.90625 -4 -4.261719 -4 h -55.480469 c -2.355468 0 -4.261718 1.789062 -4.261718 4 v 8 c 0 2.210938 1.90625 4 4.261718 4 z m 0 0" fill="#6fb182"/>
    <g fill="#3d3846">
        <use x="26.085938" xlink:href="#b" y="52.486328"/>
        <use x="37.022461" xlink:href="#c" y="52.486328"/>
        <use x="37.022461" xlink:href="#b" y="52.486328"/>
        <use x="47.958984" xlink:href="#b" y="52.486328"/>
        <use x="58.895508" xlink:href="#b" y="52.486328"/>
    </g>
    <path d="m 23.496094 62.003906 h 12 c 1.65625 0 3 1.34375 3 3 v 12 c 0 1.65625 -1.34375 3 -3 3 h -12 c -1.65625 0 -3 -1.34375 -3 -3 v -12 c 0 -1.65625 1.34375 -3 3 -3 z m 0 0" fill="#241f31"/>
    <path d="m 23.496094 60.003906 h 12 c 1.65625 0 3 1.34375 3 3 v 12 c 0 1.65625 -1.34375 3 -3 3 h -12 c -1.65625 0 -3 -1.34375 -3 -3 v -12 c 0 -1.65625 1.34375 -3 3 -3 z m 0 0" fill="#9a9996"/>
    <path d="m 69.503906 86.003906 h 12 c 1.65625 0 3 1.34375 3 3 v 12 c 0 1.65625 -1.34375 3 -3 3 h -12 c -1.660156 0 -3 -1.34375 -3 -3 v -12 c 0 -1.65625 1.339844 -3 3 -3 z m 0 0" fill="#241f31"/>
    <path d="m 69.503906 84.003906 h 12 c 1.65625 0 3 1.34375 3 3 v 12 c 0 1.65625 -1.34375 3 -3 3 h -12 c -1.660156 0 -3 -1.34375 -3 -3 v -12 c 0 -1.65625 1.339844 -3 3 -3 z m 0 0" fill="#ff7800"/>
    <path d="m 69.503906 62.003906 h 12 c 1.65625 0 3 1.34375 3 3 v 12 c 0 1.65625 -1.34375 3 -3 3 h -12 c -1.660156 0 -3 -1.34375 -3 -3 v -12 c 0 -1.65625 1.339844 -3 3 -3 z m 0 0" fill="#241f31"/>
    <path d="m 69.503906 60.003906 h 12 c 1.65625 0 3 1.34375 3 3 v 12 c 0 1.65625 -1.34375 3 -3 3 h -12 c -1.660156 0 -3 -1.34375 -3 -3 v -12 c 0 -1.65625 1.339844 -3 3 -3 z m 0 0" fill="#9a9996"/>
    <path d="m 46.5 86.003906 h 12 c 1.65625 0 3 1.34375 3 3 v 12 c 0 1.65625 -1.34375 3 -3 3 h -12 c -1.660156 0 -3 -1.34375 -3 -3 v -12 c 0 -1.65625 1.339844 -3 3 -3 z m 0 0" fill="#241f31"/>
    <path d="m 46.5 84.003906 h 12 c 1.65625 0 3 1.34375 3 3 v 12 c 0 1.65625 -1.34375 3 -3 3 h -12 c -1.660156 0 -3 -1.34375 -3 -3 v -12 c 0 -1.65625 1.339844 -3 3 -3 z m 0 0" fill="#1c71d8"/>
    <path d="m 46.5 62.003906 h 12 c 1.65625 0 3 1.34375 3 3 v 12 c 0 1.65625 -1.34375 3 -3 3 h -12 c -1.660156 0 -3 -1.34375 -3 -3 v -12 c 0 -1.65625 1.339844 -3 3 -3 z m 0 0" fill="#241f31"/>
    <path d="m 46.5 60.003906 h 12 c 1.65625 0 3 1.34375 3 3 v 12 c 0 1.65625 -1.34375 3 -3 3 h -12 c -1.660156 0 -3 -1.34375 -3 -3 v -12 c 0 -1.65625 1.339844 -3 3 -3 z m 0 0" fill="#9a9996"/>
    <path d="m 23.496094 86.003906 h 12 c 1.65625 0 3 1.34375 3 3 v 12 c 0 1.65625 -1.34375 3 -3 3 h -12 c -1.65625 0 -3 -1.34375 -3 -3 v -12 c 0 -1.65625 1.34375 -3 3 -3 z m 0 0" fill="#241f31"/>
    <path d="m 23.496094 84.003906 h 12 c 1.65625 0 3 1.34375 3 3 v 12 c 0 1.65625 -1.34375 3 -3 3 h -12 c -1.65625 0 -3 -1.34375 -3 -3 v -12 c 0 -1.65625 1.34375 -3 3 -3 z m 0 0" fill="#5e5c64"/>
    <path d="m 92.207031 86.003906 h 12.597657 c 1.492187 0 2.699218 1.34375 2.699218 3 v 12 c 0 1.65625 -1.207031 3 -2.699218 3 h -12.597657 c -1.492187 0 -2.699219 -1.34375 -2.699219 -3 v -12 c 0 -1.65625 1.207032 -3 2.699219 -3 z m 0 0" fill="#241f31"/>
    <path d="m 92.207031 60.003906 h 12.597657 c 1.492187 0 2.699218 1.34375 2.699218 3 v 36 c 0 1.65625 -1.207031 3 -2.699218 3 h -12.597657 c -1.492187 0 -2.699219 -1.34375 -2.699219 -3 v -36 c 0 -1.65625 1.207032 -3 2.699219 -3 z m 0 0" fill="#9a9996"/>
</svg>
